<svg class="main-svg" xmlns="http://www.w3.org/2000/svg" xmlns:xlink="http://www.w3.org/1999/xlink" width="264.5672624469448" height="264.5672624469448" style="" viewBox="0 0 264.5672624469448 264.5672624469448"><rect x="0" y="0" width="264.5672624469448" height="264.5672624469448" style="fill: rgb(0, 0, 0); fill-opacity: 0;"/><defs id="defs-9a37e1"><g class="clips"><clipPath id="clip9a37e1xyplot" class="plotclip"><rect width="198" height="197"/></clipPath><clipPath class="axesclip" id="clip9a37e1x"><rect x="44" y="0" width="198" height="264.5672624469448"/></clipPath><clipPath class="axesclip" id="clip9a37e1y"><rect x="0" y="23" width="264.5672624469448" height="197"/></clipPath><clipPath class="axesclip" id="clip9a37e1xy"><rect x="44" y="23" width="198" height="197"/></clipPath></g><g class="gradients"/><g class="patterns"/></defs><g class="bglayer"><rect class="bg" x="44" y="23" width="198" height="197" style="fill: rgb(0, 0, 0); fill-opacity: 0; stroke-width: 0;"/></g><g class="layer-below"><g class="imagelayer"/><g class="shapelayer"/></g><g class="cartesianlayer"><g class="subplot xy"><g class="layer-subplot"><g class="shapelayer"/><g class="imagelayer"/></g><g class="minor-gridlayer"><g class="x"/><g class="y"/></g><g class="gridlayer"><g class="x"/><g class="y"/></g><g class="zerolinelayer"/><g class="layer-between"><g class="shapelayer"/><g class="imagelayer"/></g><path class="xlines-below"/><path class="ylines-below"/><g class="overlines-below"/><g class="xaxislayer-below"/><g class="yaxislayer-below"/><g class="overaxes-below"/><g class="plot" transform="translate(44,23)" clip-path="url(#clip9a37e1xyplot)"><g class="scatterlayer mlayer"><g class="trace scatter trace495117" style="stroke-miterlimit: 2; opacity: 1;"><g class="fills"/><g class="errorbars"/><g class="lines"><path class="js-line" d="M0,-3940L1.049503278615827,-3940L1.06,-7.61L1.08,-3.99L2.5,58.22L2.52,57.16L2.6,54.17L3.31,73.5L3.35,71.95L3.49,73.79L3.55,72.58L3.93,79.75L3.97,78.53L3.99,80.41L4.25,73.79L4.45,84.05L4.49,76.56L4.63,85.35L4.69,81.52L5.21,90.07L5.27,85.92L5.55,90.81L5.95,92.68L5.99,89.4L6.03,90.88L6.31,92.47L6.81,98.01L6.83,91.51L7.11,98.54L7.19,96.32L7.53,99.91L7.65,98.87L7.93,100.93L7.99,98.77L8.42,101.79L8.46,101.69L8.74,102.67L9.18,100.8L9.2,104.8L9.28,104.12L9.56,102.15L9.68,95.29L10.34,106.83L10.36,105.36L10.52,103.94L10.88,108.25L10.92,107.88L11.18,107.29L11.56,108.68L11.66,97.98L11.7,106.94L11.98,109.25L12.42,111.08L12.44,103.56L12.56,109.08L12.86,110.19L12.96,108.04L13.36,111.68L13.4,110.17L13.69,112.78L14.15,106.86L14.17,113.4L14.23,112.96L14.51,113.44L14.95,104.75L14.97,114.48L15.27,112.59L15.53,108.51L15.57,114.14L15.85,113.95L15.87,109.21L16.43,115.54L16.49,113.86L16.77,115.54L17.25,109.92L17.37,118L17.39,111.28L17.81,117.77L18.15,116.93L18.17,116.26L18.27,115.39L18.55,116.6L18.65,116.47L18.71,118.78L19.08,119.38L19.14,113.71L19.46,119.02L19.86,116.55L20.24,117.77L20.32,117.84L20.74,114.94L21.1,120.18L21.12,119.61L21.14,115.88L21.88,119.84L21.94,114.6L22.58,120.7L22.72,120.32L22.78,119.55L23.02,118.17L23.08,121.45L23.8,121.25L23.84,116.7L24.63,122.01L24.65,119.23L24.69,122.69L25.39,121.83L25.63,122.68L25.69,119.59L25.95,123.34L26.39,120.69L26.45,122.69L26.67,119.92L26.69,123.58L26.73,122.2L26.75,114.99L27.19,124.32L27.51,121.04L27.53,121.84L28.25,124.78L28.33,123.8L28.37,122.9L28.93,120.83L28.95,122.41L28.99,123.85L29.05,122.02L29.11,124.41L29.71,123.08L29.77,124.51L30.42,123.26L30.5,123.5L30.54,125.41L31.36,123.35L31.52,125.96L32.06,122.71L32.34,123.74L32.38,125.51L33.08,127.39L33.24,126.02L33.94,123.31L34.04,127.05L34.06,125.96L34.72,127.35L34.74,123.37L35.43,125.06L35.69,122.37L36.37,127.82L36.49,127.1L37.09,125.03L37.15,129.25L37.29,128.34L37.89,125.6L38.05,129.48L38.63,128.81L38.65,127.65L39.29,128.86L39.35,128.28L39.37,127.2L39.39,129.19L40.09,126.88L40.19,129.1L40.27,126.44L40.8,129.32L40.82,129.95L41.42,130.37L41.5,130.01L41.52,128.14L42.24,130.32L42.36,126.21L43.18,131.27L43.24,126.68L44.28,130.66L44.94,130L45,129.37L45.48,129.94L45.52,132.09L45.68,130.96L46.18,131.59L46.27,132.29L46.29,127.64L46.47,130.64L47.11,132.65L47.95,130.84L48.07,131.33L48.11,132.55L48.15,130.85L48.21,132.26L48.85,131.66L49.01,130.73L49.57,133.39L49.83,134.55L50.49,132L50.67,132.3L51.31,133.97L51.47,129.34L51.49,131.53L52.06,131.69L52.3,134.95L52.84,133.68L52.86,131.84L53.06,134.2L53.12,133.59L53.72,134.14L53.74,135.65L53.8,131.5L54.42,132.94L54.48,129.19L54.72,135.35L55.34,129.42L55.44,134.78L56.08,133.52L56.22,134.37L56.28,134.19L56.82,135.66L56.86,132.93L57.02,135.73L57.55,133.98L57.73,134.11L58.23,132.5L58.27,136.36L58.31,137.12L58.35,134.01L58.43,136.14L59.07,135.82L59.89,132.54L60.35,134.38L60.47,136.43L61.11,135.15L61.67,131.6L61.75,137.24L62.27,136.59L62.74,138.28L63.24,137.03L63.26,138.09L63.46,132.37L63.54,136.79L63.74,138.76L64.22,138.03L64.38,137.66L64.94,138.51L65.02,136.87L66.2,139.55L66.22,136.9L66.32,138.74L66.82,137.45L67,136.92L67.68,139.93L68.19,138.35L68.91,140.19L69.11,139.68L69.65,139.28L69.69,141.25L70.19,137.14L70.29,137.72L70.79,138.44L71.49,140.31L72.09,140.22L72.53,139.96L72.61,137.94L73.35,142.08L73.78,140.45L73.92,140.57L73.98,140.35L74.34,137.34L75.14,141.31L75.24,140.16L75.26,139.79L75.88,141.97L76.54,140.29L77.06,141.29L77.14,143.82L77.6,141.49L77.78,143.39L78.36,141.79L78.42,141.53L79.11,143.16L79.17,140.05L79.67,144.18L79.93,144.15L80.43,144.56L80.47,143.5L81.21,145.64L81.25,144.42L81.45,143.61L82.17,144.21L82.23,145.07L83.47,145.18L83.63,143.52L83.67,145.65L84.21,142.1L84.38,144.89L85.1,144.92L85.82,147.79L86.34,145.88L86.54,147.35L87.06,146.08L87.24,144.66L88.42,147.74L88.56,146.46L89.14,148.6L89.28,146.87L89.95,147.89L90.51,149.3L90.69,144.14L91.47,149.76L91.97,148.62L92.15,147.22L92.87,149.94L92.89,147.91L93.67,149.01L94.47,150.25L95.14,149.44L95.8,150.82L95.9,149.68L96.1,149.62L96.7,151.15L96.96,150.21L97.66,150.83L97.74,147.76L97.88,150.63L98.5,150.1L98.7,151.51L99.32,150.69L100.2,152.87L100.4,151.45L101.17,151.37L102.05,152.08L102.61,152.35L102.65,153.29L103.61,153.26L103.63,152.3L104.91,154.04L105.03,153.57L106.24,155.3L106.28,153.47L106.98,154.93L107.96,155.9L109.04,152.99L109.12,155.33L109.18,156.97L110.24,156.52L110.26,155.86L111.42,157.63L112.41,157.49L113.37,159.15L113.43,156.37L114.13,158.62L114.49,156.74L115.45,159.34L115.57,159.52L116.47,158.33L117.22,158.95L117.34,159.73L118.28,160.88L120.6,160.56L121.52,158.36L122.53,162.72L123.49,162.31L124.31,163.51L124.45,163.34L125.43,162.65L126.27,164.42L127.25,164.07L129.36,165.74L130.26,163.98L132.44,166.8L133.43,168.16L133.55,166.89L134.67,167.56L135.77,169L136.35,166.54L137.31,169.91L138.37,169.67L139.48,169.79L140.16,168.68L141.08,170.86L141.22,170.4L142.26,170.78L143.34,170.78L143.44,171.61L144.55,170.07L145.75,170.31L146.99,173.88L148.33,173.94L150.96,175.82L152.02,175.31L152.2,175.01L153.4,175.53L154.3,175.68L154.6,176.75L154.7,175.8L155.99,177.46L158.33,178.63L158.47,177.71L160.62,179.4L161.72,179.17L161.86,179.58L163.02,180.13L164.18,180.85L165.3,180.65L167.63,182.29L168.93,181.76L173.7,184.45L174.92,184.11L176.08,185.36L176.24,184.78L176.26,184.33L178.89,186.02L180.07,185.9L180.29,185.17L181.49,186.6L181.61,186.29L182.68,186.62L185.14,187.07L185.2,186.48L185.44,187.66L186.62,187.03L186.78,187.52L187.93,187.48L187.99,187.81L188.09,187.07L189.35,187.7L189.47,187.53L190.59,188.42L190.75,187.01L190.89,187.74L192.07,188.5L192.31,187.35L193.68,188L194.96,187.47L194.98,187.86L195,188.59L197.68,188.25L198.97,188.58L198.99,188.1" style="vector-effect: none; fill: none; stroke: rgb(59, 139, 195); stroke-opacity: 1; stroke-width: 2px; opacity: 1;"/></g><g class="points"/><g class="text"/></g><g class="trace scatter trace7aeb50" style="stroke-miterlimit: 2; opacity: 1;"><g class="fills"/><g class="errorbars"/><g class="lines"><path class="js-line" d="M0.64,-321.08L2.22,-34.94L2.89,-21.16L4.23,10.37L6.59,29.69L6.67,29.55L7.01,30.1L7.51,35.51L8.78,39.68L8.96,38.97L9.24,41.87L9.92,41.93L10.06,40.46L10.38,45.65L11.08,43.49L11.46,47.52L12.18,50.47L13.58,49.16L13.77,52.09L14.69,50.96L15.57,56.07L15.99,57.08L16.57,55.91L17.17,57.22L17.89,56.21L18.09,58.68L18.53,54.4L18.71,60.49L18.99,61.49L19.04,55.45L19.48,59.28L19.7,59.36L20.48,57.1L20.5,59.95L21.64,56.27L21.98,62.06L22.8,62.72L23.98,59.83L24.16,54.24L24.22,61.99L24.71,62.03L26.31,65.8L26.37,65.56L26.41,62.42L26.75,54.61L27.11,65.39L27.77,64.92L27.81,65.38L28.53,63.8L29.73,68.41L30,67.42L30.52,67.24L30.78,68.89L31.16,64.74L31.54,67.18L31.98,64.31L32.68,68.49L33.18,66.08L33.38,69.8L33.82,68.69L34.38,70.71L34.68,70.47L35.06,66.56L35.75,64.57L36.33,71.11L38.03,70.15L38.47,72.56L38.83,72.87L39.57,71.91L39.59,73.96L40.11,66.36L40.53,72.67L40.82,73.99L42.04,71.09L42.56,72.05L43.5,75.65L43.98,73.41L44.02,65.98L44.66,75.62L44.74,73.62L45.94,76.37L46,72.42L46.25,73.27L46.81,75.78L46.91,72.66L47.09,75.9L47.59,73.47L47.63,75.95L47.73,76.92L47.79,76.47L48.77,65.64L49.85,77.83L49.87,75.03L50.57,77.84L50.97,73.96L51.72,78.19L52.06,76.6L52.84,77.97L52.86,74.36L53,77.57L53.08,76.55L53.86,78.11L55.2,79.52L55.58,78.5L55.92,79.93L56.28,79.24L56.46,78.41L56.98,79.67L58.11,74.91L58.77,80.93L59.31,78.03L60.03,82.44L60.61,82.06L60.89,81.78L60.91,79.1L61.19,74.16L61.41,81.86L61.65,81.65L62.09,75.97L62.19,80.95L62.8,83.48L62.82,79.56L63.4,84.56L63.92,81.85L64,84.06L64.58,82.94L65.9,83.22L66.38,82.37L66.78,83.9L68.55,84.41L69.19,85.5L70.01,87.1L70.07,85.07L70.25,85.83L70.33,83.01L70.47,87.22L70.59,85.23L71.37,85.51L73.6,87.81L74.04,86.18L74.28,81.96L75.3,86.27L75.66,89.13L76.12,87.56L76.22,87.24L76.7,88.71L77.32,86.88L77.76,90.62L78.1,86.62L78.54,87.14L78.72,89.61L79.31,89.15L79.81,90.22L80.43,90.49L80.95,88.68L81.09,91.53L81.25,90.78L82.81,91.82L83.01,88.76L83.45,92.57L83.81,92.49L83.95,90.82L84.86,91.34L84.98,92.9L85,85.81L85.24,91.46L85.96,92.7L85.98,91.31L86.34,92.3L89.73,95.5L89.79,95.86L90.01,94.23L90.31,91.59L90.83,94.54L91.35,94.23L92.59,96.26L92.99,96.38L93.03,94.97L93.35,94.57L94.03,97.29L94.15,97.22L94.65,95.43L95.16,96L95.44,98.12L96,98.47L96.42,95.13L97.14,99.66L98.12,97.92L98.52,98.45L99.88,99.43L99.92,99.18L100.48,99.53L100.87,99.24L101.63,95.57L102.45,98.08L104.41,102.96L104.69,98.71L105.71,98.14L106.04,103.69L106.56,101.73L107.04,104.15L107.16,100.11L107.64,103.71L107.8,104.29L107.82,103.91L109.58,104.93L109.64,103.89L109.88,104.03L110.76,102.94L112.63,106.42L112.65,104.24L113.17,107.3L113.57,106.59L114.13,107.6L114.67,102.75L115.09,108.64L115.15,105.44L116.47,107.14L116.81,109.09L116.85,107.52L117.58,108.64L118.3,103.66L119.62,106.28L119.98,110.91L120.6,107.9L120.78,111.59L121.9,110.35L122.37,111.8L122.77,110.48L123.43,112.75L123.81,112L124.63,113.39L125.01,111.62L125.25,109.65L126.07,112.83L126.27,113.34L127.11,113.02L127.59,114.57L127.71,113.53L127.84,109.48L128.22,115.03L128.48,113.88L129.62,112.46L130.4,116.48L131.04,116.4L132.1,114.83L132.28,116.22L133.29,118.15L133.65,117.59L133.85,116.46L133.91,117.49L134.65,118.4L135.95,117.71L136.09,119.17L137.09,119.29L138.43,120.14L138.78,119.12L139.1,120.95L139.18,120.64L139.34,121.2L140.52,120.7L141.96,119.88L142.8,122.85L142.96,123.21L143.44,122.07L144.41,124.17L144.89,123.47L145.37,123.85L145.75,121.51L146.01,123.34L147.09,125.13L147.19,124.04L147.91,125.03L148.15,125.26L148.45,126.11L148.65,123.44L148.73,125.53L149.84,127.07L151.34,126.06L151.48,127.18L152.24,126.63L152.38,127.79L152.6,126.61L153.04,127.18L153.24,127.87L153.34,127.4L153.42,128.23L154.02,128.93L154.48,129.61L154.84,128.57L156.09,129.92L156.99,129.15L157.51,130.6L158.35,130.46L158.81,131.12L159.07,130.91L159.97,130.43L160.33,131.99L160.48,130.9L161.44,131.6L162.36,132.77L162.42,132.38L162.78,131.99L164.4,133.68L165.54,133.42L166.41,134.69L167.29,134.48L167.33,133.81L167.37,133.9L168.09,135.31L168.45,136L169.33,136.01L169.87,134.82L170.53,135.93L171.9,136.64L172.3,135.86L172.68,137.19L173.36,136.89L173.48,136.86L174.08,137.58L174.68,137.32L174.84,136.97L175.08,137.56L175.82,137.25L176.08,138.15L176.4,138.11L177.07,138.5L177.57,138.08L180.91,140.06L180.95,138.89L181.65,139.53L181.77,139.68L182.5,140.72L182.76,140.49L183.26,141.01L183.44,139.84L183.84,139.53L183.9,141.03L185.32,140.14L186.64,140.96L186.94,141.67L187.24,141.14L187.79,141.19L188.05,140.53L188.27,141.28L189.29,141.54L190.01,141.9L190.77,142.03L191.09,141.42L191.39,142.08L191.97,141.86L192.49,140.53L192.59,142.13L192.71,141.74L193.5,141.61L193.7,142.7L193.78,142.01L195.04,142.4L195.2,140.96L196.42,141.89L196.48,141.47L196.58,141.98L197.68,142.26L197.8,142.53L197.94,141.9L199.07,142.79L199.29,141.43L199.33,142.15" style="vector-effect: none; fill: none; stroke: rgb(166, 205, 228); stroke-opacity: 1; stroke-width: 2px; opacity: 1;"/></g><g class="points"/><g class="text"/></g><g class="trace scatter trace1ad08a" style="stroke-miterlimit: 2; opacity: 1;"><g class="fills"/><g class="errorbars"/><g class="lines"><path class="js-line" d="M0.64,-364.46L2.22,-11.75L2.89,9.24L4.23,39.61L5.63,55.12L5.71,49.45L6.05,60.03L6.55,60.56L7.83,68.96L8.01,70.22L8.28,63.02L8.96,71.53L9.1,68.87L9.42,74.64L10.12,80.47L11.22,79.97L12.62,82.44L13.73,87.94L14.15,83.53L15.33,88.69L16.05,84.86L16.99,96.01L18.13,94.57L18.51,95.58L18.97,98.95L19.02,98.73L19.46,100.57L19.68,96.87L20.46,97.94L20.48,97.34L21.62,101.81L21.96,102.8L22.78,102.21L23.96,101.22L24.14,102.95L24.2,102.44L24.69,106.96L24.95,100.9L25.43,105.84L26.29,108.78L26.35,105.35L26.73,106.67L27.09,108.91L27.75,108.76L27.79,105.89L28.51,110.72L28.81,107.97L29.23,108.84L29.71,107.25L29.98,111.25L30.5,110.05L30.76,107.8L31.14,109.43L31.52,111.75L32,110.69L32.3,107.47L33.48,113.55L33.56,113.21L33.8,111.48L34.36,108.45L34.66,114.14L35.04,111.73L35.73,114.1L36.77,114.48L36.89,113.17L38.01,112.4L38.45,114.98L38.81,114.99L39.55,113.96L39.65,117.21L40.09,115.96L40.51,112.31L40.55,117.69L40.8,115.12L42.02,116.81L43.48,119.48L43.96,118.88L44,118.71L44.04,119.32L44.12,114.16L45.32,118.68L46.69,121.59L46.91,118.92L47.35,121.91L47.63,119.44L48.29,120.13L48.97,120.97L49.11,120.91L49.17,120.29L50.15,117.91L50.91,122.47L52.2,121.53L52.34,123.27L52.96,121.66L53.06,123.16L53.36,123.39L53.78,119.92L54.08,120.05L54.24,124.42L54.32,122.26L55.1,121.16L56.82,125.3L57.15,123.85L57.69,123.29L58.21,124.73L59.35,125.88L59.71,127.04L60.01,126.59L60.55,125.66L60.57,127.24L61.19,122.16L61.27,126.94L61.85,126.37L62.05,127.58L62.11,124.83L62.6,125.57L62.64,126.74L62.7,124.65L63.3,128.11L64.58,127.31L65.46,128.64L67.24,129.79L67.88,128.74L67.99,130.38L69.07,129.67L69.41,131.23L69.87,128.63L70.77,128.67L73.44,132.72L73.46,130.35L73.68,132.01L74.12,129.59L74.3,133.4L74.7,132.08L75.16,133.02L75.78,133.72L76.22,132.65L76.56,134.21L77,130.62L77.86,135.36L78.24,133.94L78.26,133.13L78.28,135.18L78.89,134.13L79.41,133.99L79.55,132.1L80.05,135.79L80.77,134.53L80.79,136.04L81.15,133.75L82.79,133.65L83.37,136.09L83.89,137.74L84.4,137.74L85.64,138.95L86.02,138.62L86.04,136.58L86.8,137.55L86.92,138.6L87.94,139.61L87.96,137.79L88.4,139.96L88.68,136.38L89.02,140.04L89.1,139.74L90.07,140.3L91.87,140.36L92.43,139.18L92.83,140.64L93.09,138.37L93.59,142.1L94.41,141.16L94.95,138.23L96.22,142.74L96.64,143.31L97.66,143.23L98,143.48L98.52,142.49L99,143.51L99.12,141.43L99.76,145.4L99.78,143.47L101.53,144.08L101.59,146.13L101.83,145.82L102.71,142.9L103.67,146.85L104.59,147.08L105.13,143.73L105.53,147.77L107.04,148.2L107.1,147.49L108.5,149.78L108.64,147.15L109.56,148.94L110.28,149.87L111.59,150.68L111.95,149.73L113.05,150.36L113.89,151.74L115.01,152.04L115.49,150.74L115.87,153.72L116.41,152.04L116.53,152.11L116.55,151.68L117.06,152.54L117.3,154.11L118.12,153.49L118.32,154.2L119.16,154.75L119.76,154.05L119.96,154.45L119.98,155.04L120,155.28L120.02,153.7L120.54,154.54L120.76,154.48L121.42,151.74L121.68,155.64L121.88,156.55L122.55,155.43L123.35,156.29L123.61,155.14L124.07,157.6L124.25,153.31L125.17,157.28L125.37,156.96L125.43,155.77L126.17,157.23L127.47,157.49L127.61,157.33L127.96,158.74L128.6,158.23L130.2,158.15L130.96,160.47L131.12,161.26L132.3,160.34L133.73,161.32L134.57,161.63L134.73,161.13L135.21,162.21L136.19,162.18L136.67,163.21L137.15,161.71L137.53,164.53L137.79,162.85L138.05,163.63L138.86,164.33L138.96,163.19L139.64,163.88L139.68,164.4L139.98,163.79L140.5,165.43L141.62,164.87L141.92,163.87L142.16,164.75L142.3,165.28L142.36,166.32L142.88,165.18L142.96,166.18L143.34,164.84L143.6,165.02L143.96,166.76L144.02,167.02L144.63,166.77L144.77,166.85L145.35,166.97L146.25,166.31L146.69,168.58L146.77,166.25L147.61,168.43L148.33,168.61L149.23,169.76L149.58,169.02L149.74,170.02L150.7,170.26L150.86,169.72L151.14,170.5L151.62,169.91L151.68,170.84L152.04,169.44L152.64,170.55L154.8,172.54L154.93,171.39L154.99,172.42L155.67,172.18L156.55,172.37L156.63,173.3L157.35,172.19L158.59,173.92L159.13,173.39L160.46,174.85L160.68,174.13L160.98,174.15L161.08,175.18L161.16,173.82L161.8,174.06L162.4,175.54L162.56,174.55L162.8,174.78L163.54,174.26L163.8,176.28L164.12,175.98L164.8,176.94L164.88,176.16L165.3,176.42L168.11,178.26L168.63,177.19L168.77,178.6L168.97,177.84L169.23,178.24L169.73,178.61L169.91,178.3L171.05,178.62L171.76,179.44L171.82,178.75L172.3,178.62L172.58,179.51L173.24,179.73L175.98,180.75L176.2,180.23L177.67,180.88L177.69,180.36L179.01,181.96L179.03,181.51L179.31,181.23L179.63,180.35L179.89,181.8L180.41,181.83L180.51,182.19L180.63,181.78L181.43,182L181.61,182.77L182.36,182.54L184.7,183.3L185.5,182.43L186.3,182.45L187.1,183.27L188.69,183.53L189.49,183.51L190.27,183.83L191.03,183.22L191.77,184.3L191.79,183.94L192.51,183.98L194.04,184.53L194.8,183.75L195.54,184.63L195.56,184.01L196.32,183.9L197.82,184.37L198.57,184.15L199.29,184.12" style="vector-effect: none; fill: none; stroke: rgb(202, 105, 157); stroke-opacity: 1; stroke-width: 2px; opacity: 1;"/></g><g class="points"/><g class="text"/></g></g></g><g class="overplot"/><path class="xlines-above crisp" d="M43,220.5H242" style="fill: none; stroke-width: 1px; stroke: rgb(36, 36, 36); stroke-opacity: 1;"/><path class="ylines-above crisp" d="M43.5,23V220" style="fill: none; stroke-width: 1px; stroke: rgb(36, 36, 36); stroke-opacity: 1;"/><g class="overlines-above"/><g class="xaxislayer-above"><path class="xtick ticks crisp" d="M0,221v5" transform="translate(44,0)" style="stroke: rgb(68, 68, 68); stroke-opacity: 1; stroke-width: 1px;"/><path class="xtick ticks crisp" d="M0,221v5" transform="translate(120.15,0)" style="stroke: rgb(68, 68, 68); stroke-opacity: 1; stroke-width: 1px;"/><path class="xtick ticks crisp" d="M0,221v5" transform="translate(196.31,0)" style="stroke: rgb(68, 68, 68); stroke-opacity: 1; stroke-width: 1px;"/><g class="xtick"><text text-anchor="middle" x="0" y="240.4" transform="translate(44,0)" style="font-family: 'Open Sans', verdana, arial, sans-serif; font-size: 12px; fill: rgb(36, 36, 36); fill-opacity: 1; white-space: pre; opacity: 1;">0</text></g><g class="xtick"><text text-anchor="middle" x="0" y="240.4" style="font-family: 'Open Sans', verdana, arial, sans-serif; font-size: 12px; fill: rgb(36, 36, 36); fill-opacity: 1; white-space: pre; opacity: 1;" transform="translate(120.15,0)">50B</text></g><g class="xtick"><text text-anchor="middle" x="0" y="240.4" style="font-family: 'Open Sans', verdana, arial, sans-serif; font-size: 12px; fill: rgb(36, 36, 36); fill-opacity: 1; white-space: pre; opacity: 1;" transform="translate(196.31,0)">100B</text></g></g><g class="yaxislayer-above"><path class="ytick ticks crisp" d="M43,0h-5" transform="translate(0,207.69)" style="stroke: rgb(68, 68, 68); stroke-opacity: 1; stroke-width: 1px;"/><path class="ytick ticks crisp" d="M43,0h-5" transform="translate(0,146.13)" style="stroke: rgb(68, 68, 68); stroke-opacity: 1; stroke-width: 1px;"/><path class="ytick ticks crisp" d="M43,0h-5" transform="translate(0,84.56)" style="stroke: rgb(68, 68, 68); stroke-opacity: 1; stroke-width: 1px;"/><path class="ytick ticks crisp" d="M43,0h-5" transform="translate(0,23)" style="stroke: rgb(68, 68, 68); stroke-opacity: 1; stroke-width: 1px;"/><g class="ytick"><text text-anchor="end" x="35.6" y="4.199999999999999" transform="translate(0,207.69)" style="font-family: 'Open Sans', verdana, arial, sans-serif; font-size: 12px; fill: rgb(36, 36, 36); fill-opacity: 1; white-space: pre; opacity: 1;">25</text></g><g class="ytick"><text text-anchor="end" x="35.6" y="4.199999999999999" style="font-family: 'Open Sans', verdana, arial, sans-serif; font-size: 12px; fill: rgb(36, 36, 36); fill-opacity: 1; white-space: pre; opacity: 1;" transform="translate(0,146.13)">30</text></g><g class="ytick"><text text-anchor="end" x="35.6" y="4.199999999999999" style="font-family: 'Open Sans', verdana, arial, sans-serif; font-size: 12px; fill: rgb(36, 36, 36); fill-opacity: 1; white-space: pre; opacity: 1;" transform="translate(0,84.56)">35</text></g><g class="ytick"><text text-anchor="end" x="35.6" y="4.199999999999999" style="font-family: 'Open Sans', verdana, arial, sans-serif; font-size: 12px; fill: rgb(36, 36, 36); fill-opacity: 1; white-space: pre; opacity: 1;" transform="translate(0,23)">40</text></g></g><g class="overaxes-above"/></g></g><g class="polarlayer"/><g class="smithlayer"/><g class="ternarylayer"/><g class="geolayer"/><g class="funnelarealayer"/><g class="pielayer"/><g class="iciclelayer"/><g class="treemaplayer"/><g class="sunburstlayer"/><g class="glimages"/><defs id="topdefs-9a37e1"><g class="clips"/><clipPath id="legend9a37e1"><rect width="139" height="67" x="0" y="0"/></clipPath></defs><g class="layer-above"><g class="imagelayer"/><g class="shapelayer"/></g><g class="infolayer"><g class="legend" pointer-events="all" transform="translate(73.5,23)"><rect class="bg" shape-rendering="crispEdges" style="stroke: rgb(68, 68, 68); stroke-opacity: 1; fill: rgb(0, 0, 0); fill-opacity: 0; stroke-width: 0px;" width="139" height="67" x="0" y="0"/><g class="scrollbox" transform="" clip-path="url(#legend9a37e1)"><g class="groups" transform=""><g class="traces" transform="translate(0,14.5)" style="opacity: 1;"><text class="legendtext" text-anchor="start" x="40" y="4.680000000000001" style="font-family: 'Open Sans', verdana, arial, sans-serif; font-size: 12px; fill: rgb(36, 36, 36); fill-opacity: 1; white-space: pre;">Softmax attention</text><g class="layers" style="opacity: 1;"><g class="legendfill"/><g class="legendlines"><path class="js-line" d="M5,0h30" style="fill: none; stroke: rgb(59, 139, 195); stroke-opacity: 1; stroke-width: 2px;"/></g><g class="legendsymbols"><g class="legendpoints"/></g></g><rect class="legendtoggle" x="0" y="-9.5" width="135.890625" height="19" style="fill: rgb(0, 0, 0); fill-opacity: 0;"/></g></g><g class="groups" transform="translate(0,19)"><g class="traces" transform="translate(0,14.5)" style="opacity: 1;"><text class="legendtext" text-anchor="start" x="40" y="4.680000000000001" style="font-family: 'Open Sans', verdana, arial, sans-serif; font-size: 12px; fill: rgb(36, 36, 36); fill-opacity: 1; white-space: pre;">Linear attention</text><g class="layers" style="opacity: 1;"><g class="legendfill"/><g class="legendlines"><path class="js-line" d="M5,0h30" style="fill: none; stroke: rgb(166, 205, 228); stroke-opacity: 1; stroke-width: 2px;"/></g><g class="legendsymbols"><g class="legendpoints"/></g></g><rect class="legendtoggle" x="0" y="-9.5" width="125.234375" height="19" style="fill: rgb(0, 0, 0); fill-opacity: 0;"/></g></g><g class="groups" transform="translate(0,38)"><g class="traces" transform="translate(0,14.5)" style="opacity: 1;"><text class="legendtext" text-anchor="start" x="40" y="4.680000000000001" style="font-family: 'Open Sans', verdana, arial, sans-serif; font-size: 12px; fill: rgb(36, 36, 36); fill-opacity: 1; white-space: pre;">HYLA</text><g class="layers" style="opacity: 1;"><g class="legendfill"/><g class="legendlines"><path class="js-line" d="M5,0h30" style="fill: none; stroke: rgb(202, 105, 157); stroke-opacity: 1; stroke-width: 2px;"/></g><g class="legendsymbols"><g class="legendpoints"/></g></g><rect class="legendtoggle" x="0" y="-9.5" width="73.859375" height="19" style="fill: rgb(0, 0, 0); fill-opacity: 0;"/></g></g></g><rect class="scrollbar" rx="20" ry="3" width="0" height="0" style="fill: rgb(128, 139, 164); fill-opacity: 1;" x="0" y="0"/></g><g class="g-gtitle"/><g class="g-xtitle" transform="translate(0,3.6999999999999886)"><text class="xtitle" x="143" y="252.70625" text-anchor="middle" style="font-family: 'Open Sans', verdana, arial, sans-serif; font-size: 14px; fill: rgb(36, 36, 36); opacity: 1; font-weight: normal; white-space: pre;">Tokens</text></g><g class="g-ytitle" transform="translate(0.0498046875,0)"><text class="ytitle" transform="rotate(-90,12.950000000000003,121.5)" x="12.950000000000003" y="121.5" text-anchor="middle" style="font-family: 'Open Sans', verdana, arial, sans-serif; font-size: 14px; fill: rgb(36, 36, 36); opacity: 1; font-weight: normal; white-space: pre;">Evaluation perplexity</text></g></g></svg>